<?xml version="1.0" encoding="UTF-8" standalone="no"?>
<svg
   xmlns:dc="http://purl.org/dc/elements/1.1/"
   xmlns:cc="http://creativecommons.org/ns#"
   xmlns:rdf="http://www.w3.org/1999/02/22-rdf-syntax-ns#"
   xmlns:svg="http://www.w3.org/2000/svg"
   xmlns="http://www.w3.org/2000/svg"
   xmlns:sodipodi="http://sodipodi.sourceforge.net/DTD/sodipodi-0.dtd"
   xmlns:inkscape="http://www.inkscape.org/namespaces/inkscape"
   id="svg8"
   version="1.1"
   viewBox="0 0 28.575 28.574998"
   height="108"
   width="108"
   sodipodi:docname="logo_sw.svg"
   inkscape:version="0.92.4 5da689c313, 2019-01-14"
   inkscape:export-filename="/home/tux/Android/StreamRadio/app/src/main/res/mipmap-xxhdpi/logo_sw.png"
   inkscape:export-xdpi="128"
   inkscape:export-ydpi="128">
  <sodipodi:namedview
     pagecolor="#ffffff"
     bordercolor="#666666"
     borderopacity="1"
     objecttolerance="10"
     gridtolerance="10"
     guidetolerance="10"
     inkscape:pageopacity="0"
     inkscape:pageshadow="2"
     inkscape:window-width="1887"
     inkscape:window-height="1054"
     id="namedview6304"
     showgrid="false"
     inkscape:zoom="2.1851852"
     inkscape:cx="-61.550847"
     inkscape:cy="54"
     inkscape:window-x="33"
     inkscape:window-y="0"
     inkscape:window-maximized="1"
     inkscape:current-layer="svg8"
     inkscape:snap-page="true" />
  <defs
     id="defs2" />
  <metadata
     id="metadata5">
    <rdf:RDF>
      <cc:Work
         rdf:about="">
        <dc:format>image/svg+xml</dc:format>
        <dc:type
           rdf:resource="http://purl.org/dc/dcmitype/StillImage" />
        <dc:title></dc:title>
      </cc:Work>
    </rdf:RDF>
  </metadata>
  <path
     style="opacity:1;fill:#87aade;fill-opacity:1;stroke:none;stroke-width:2.34477115;stroke-miterlimit:4;stroke-dasharray:none;stroke-dashoffset:0;stroke-opacity:0.63756612"
     d="M 70.082031 6.4003906 L 62.826172 22.173828 A 43.264283 36.45276 0 0 0 57.0625 21.808594 A 43.264283 36.45276 0 0 0 35.960938 26.486328 L 23.638672 13.78125 C 23.537709 35.070962 23.088601 31.459807 22.859375 36.009766 A 43.264283 36.45276 0 0 0 13.796875 58.261719 A 43.264283 36.45276 0 0 0 57.0625 94.712891 A 43.264283 36.45276 0 0 0 100.32617 58.261719 A 43.264283 36.45276 0 0 0 78.548828 26.65625 C 78.840543 26.397236 79.131158 26.147579 79.425781 25.869141 L 70.082031 6.4003906 z M 61.166016 38.365234 A 32.842955 26.211205 0 0 1 94.009766 64.576172 A 32.842955 26.211205 0 0 1 61.166016 90.787109 A 32.842955 26.211205 0 0 1 28.324219 64.576172 A 32.842955 26.211205 0 0 1 61.166016 38.365234 z "
     transform="scale(0.26458332)"
     id="path1475" />
  <path
     inkscape:connector-curvature="0"
     style="opacity:1;fill:#de8787;stroke-width:0.18068795"
     id="path3739"
     d="m 14.563616,14.831808 a 2.1683235,1.5444151 0 0 1 -1.671899,1.503387 2.1683235,1.5444151 0 0 1 -2.437441,-0.815008 2.1683235,1.5444151 0 0 1 0.555825,-1.87658 2.1683235,1.5444151 0 0 1 2.691948,-0.0443 l -1.306757,1.232449 z" />
  <path
     inkscape:connector-curvature="0"
     style="opacity:1;fill:#de8787;stroke-width:0.20648585"
     id="path3741"
     d="m 22.000734,13.688766 a 2.6955901,1.8883679 0 0 1 -1.989319,1.822408 2.6955901,1.8883679 0 0 1 -3.031762,-0.867439 2.6955901,1.8883679 0 0 1 0.40062,-2.276935 2.6955901,1.8883679 0 0 1 3.241694,-0.325744 l -1.316823,1.64771 z" />
  <path
     inkscape:connector-curvature="0"
     style="opacity:1;stroke-width:0.30441976;fill:#4d4d4d"
     id="path3743"
     d="m 15.604388,21.413894 a 1.2978418,2.2063312 57.61127 0 1 0.527731,-1.762569 1.2978418,2.2063312 57.61127 0 1 2.210032,-1.030973 1.2978418,2.2063312 57.61127 0 1 1.108129,0.999454 1.2978418,2.2063312 57.61127 0 1 -1.389809,1.770752 l -0.592978,-1.158512 z" />
</svg>
